<svg width="179" height="35" viewBox="0 0 179 35" fill="none"
    xmlns="http://www.w3.org/2000/svg">
    <g clip-path="url(#clip0_257_1822)">
        <path d="M179 26.6131H173.964C173.868 25.9571 173.796 25.43 173.712 24.7741C173.34 24.9615 173.052 25.0552 172.836 25.2426C169.443 28.0421 164.634 27.4799 162.056 23.9424C159.849 20.932 159.825 15.2275 161.996 12.2289C164.634 8.59769 169.862 8.05887 172.92 10.9053C173.088 11.0692 173.316 11.1747 173.772 11.4558V3.76001H179.012V26.6248L179 26.6131ZM173.808 18.0154C173.796 15.3213 171.601 13.2831 169.155 13.6931C167.308 13.9976 165.917 15.6961 165.821 17.7342C165.713 20.0184 166.912 21.8691 168.819 22.3494C171.445 23.0053 173.832 20.932 173.808 18.0154Z" fill="#3B5941"/>
        <path d="M84.6134 9.53479V26.66H79.4689C79.397 26.0391 79.337 25.4652 79.2531 24.7038C78.8813 24.9381 78.6295 25.0552 78.4257 25.2426C74.9601 28.3467 69.0721 27.2339 67.0815 23.0756C65.7265 20.2527 65.5466 17.336 66.5179 14.3491C68.0768 9.47623 74.3845 7.16866 78.5456 10.9638C78.7255 11.1278 78.9413 11.2567 79.349 11.5729C79.397 10.7999 79.445 10.2376 79.4929 9.53479H84.6254H84.6134ZM79.337 18.0271C79.337 15.3798 77.2864 13.3768 74.8761 13.6697C73.0054 13.8922 71.5184 15.5438 71.3626 17.5703C71.1947 19.8076 72.3699 21.7871 74.1806 22.3025C76.9147 23.0756 79.337 21.0726 79.337 18.0271Z" fill="#3B5941"/>
        <path d="M120.912 26.6599V4.98991C121.368 4.95477 121.871 4.87278 122.363 4.87278C124.953 4.86107 127.556 4.84935 130.146 4.87278C130.817 4.87278 131.501 4.93135 132.148 5.07191C135.71 5.79815 137.736 8.094 137.88 11.4909C138.024 14.9933 136.166 17.5234 132.652 18.4605C131.669 18.7299 130.613 18.7767 129.582 18.8353C128.551 18.8939 127.52 18.847 126.308 18.847C125.889 21.4591 126.344 24.0478 126.021 26.6482H120.924L120.912 26.6599ZM126.26 14.6887C127.567 14.6887 128.755 14.7824 129.93 14.6653C131.609 14.4896 132.484 13.4002 132.46 11.7603C132.436 10.2493 131.513 9.24192 129.858 9.11307C128.707 9.01937 127.532 9.08965 126.272 9.08965V14.6887H126.26Z" fill="#3B5941"/>
        <path d="M112.866 9.34737C114.077 9.34737 115.264 9.33566 116.451 9.34737C117.111 9.34737 117.77 9.41765 118.61 9.4645C114.868 18.0388 111.187 26.4608 107.457 35H101.833C102.409 33.6646 102.961 32.341 103.536 31.0291C104.076 29.8226 104.639 28.6278 105.215 27.433C105.623 26.6014 105.599 25.84 105.215 24.9615C103.248 20.4869 101.342 15.9889 99.423 11.5027C99.1712 10.9053 98.9434 10.2962 98.6316 9.51136H104.532C105.815 12.8966 107.134 16.3755 108.453 19.8544L108.884 19.8895C110.18 16.4692 111.475 13.0488 112.878 9.34737H112.866Z" fill="#3B5941"/>
        <path d="M149.285 9.12478C154.729 9.13649 158.35 12.7911 158.338 18.2379C158.338 23.3216 154.405 26.9996 149.009 26.9879C143.505 26.9879 139.823 23.3801 139.835 18.0036C139.835 12.6388 143.613 9.10135 149.297 9.11307L149.285 9.12478ZM152.918 17.8279C152.834 17.418 152.81 16.68 152.534 16.0475C151.959 14.7238 150.999 13.7516 149.417 13.6462C147.822 13.5408 146.479 14.1265 145.855 15.5672C145.447 16.5043 145.303 17.6171 145.315 18.6596C145.351 20.7914 146.97 22.4196 148.949 22.5133C150.784 22.607 152.486 21.0726 152.822 19.0344C152.87 18.7299 152.87 18.4253 152.918 17.8279Z" fill="#3B5941"/>
        <path d="M57.8599 21.1898H63.4001C62.6806 23.755 61.0617 25.3481 58.7833 26.3086C56.229 27.3862 53.6028 27.2574 51.0486 26.25C48.8661 25.3832 47.3912 23.7667 46.6477 21.588C45.9641 19.585 45.8562 17.4883 46.3719 15.4384C47.5111 10.8819 51.972 8.31659 56.9725 9.26539C61.7572 10.179 64.3714 13.8688 63.7598 19.2102H51.5283C51.4803 20.9789 52.1519 22.0097 53.5069 22.5602C55.1498 23.2279 56.217 22.8999 57.8719 21.1898H57.8599ZM58.3276 16.3989C58.1477 14.2671 56.9126 13.2363 54.802 13.3066C52.8594 13.3651 51.6002 14.5599 51.6002 16.3989H58.3396H58.3276Z" fill="#3B5941"/>
        <path d="M89.3981 13.8923C88.6546 13.7634 88.1509 13.6814 87.5273 13.576V9.58169C87.995 9.49969 88.5346 9.40598 89.2542 9.27714C89.494 7.03985 89.7818 4.72058 92.0122 3.36181C93.6671 2.35445 95.5138 2.26074 97.4924 2.24902V6.48932C95.19 7.01643 94.9862 7.20384 94.7703 9.19514C95.6457 9.31228 96.5331 9.42941 97.5404 9.56997V13.5526C96.701 13.6229 95.8616 13.7048 94.8063 13.7986V26.6366H89.3861V13.8923H89.3981Z" fill="#3B5941"/>
        <path d="M31.9099 4.90796H37.0663V22.7008H44.2014V26.6483H31.9099V4.90796Z" fill="#3B5941"/>
        <path d="M24.0195 21.6817C22.8203 21.26 22.3047 22.0331 21.7411 22.6188C19.0669 25.3363 17.8198 25.3598 15.0857 22.7477C14.8099 22.4782 14.5101 22.2205 14.1983 21.9863C14.0544 21.8691 13.8625 21.8106 13.4548 21.5997C12.9392 22.0097 12.3156 22.4314 11.788 22.9585C8.96993 25.8283 5.18056 25.0435 3.9574 21.2835C3.65761 20.3815 3.50172 19.4093 3.46574 18.4605C3.36981 16.0944 3.44176 13.7165 3.33384 11.3504C3.04604 5.07195 7.30309 1.40562 12.3156 0.421684C15.5534 -0.210846 18.8031 -0.117138 22.0529 0.620814C22.9283 4.43942 22.9283 8.09404 21.5013 11.6667C19.6425 16.2935 15.6133 18.9525 11.0565 18.6245C7.41101 18.3668 5.92404 15.5673 7.84271 12.51C9.70142 9.56994 12.1357 7.1921 15.2896 5.56392C15.8052 5.30622 16.4288 5.25937 17.0044 5.11881C17.1123 5.29451 17.2322 5.47021 17.3401 5.64591C16.8365 6.12617 16.3808 6.65328 15.8412 7.09839C14.1024 8.53915 12.2916 9.92135 10.6008 11.4207C9.94126 12.0064 9.43761 12.8146 9.00591 13.5994C7.93865 15.5438 8.65815 16.844 10.9486 17.0315C14.0544 17.2774 16.6086 16.1529 18.5033 13.7282C20.3381 11.3973 20.9856 8.67972 20.9616 5.78648C20.9496 4.57998 20.9616 3.3852 20.9616 2.33099C16.7046 0.456825 9.29371 2.07329 6.72749 5.36479C5.97201 6.34873 5.2645 7.64893 5.21653 8.82028C5.07263 12.5803 5.24052 16.3638 5.33645 20.1238C5.34844 20.6158 5.56429 21.1312 5.78014 21.588C6.5596 23.2396 8.41831 23.6613 9.85732 22.5368C10.2051 22.2557 10.4929 21.8926 10.8167 21.5763C12.5435 19.8076 14.5581 19.7841 16.2969 21.5177C17.1603 22.3845 17.9037 23.4622 18.971 23.1225C20.1582 22.0683 20.9376 21.1898 21.897 20.5455C23.8636 19.2219 25.6983 20.1121 25.9382 22.4431C26.178 24.7858 25.1707 26.7654 23.6957 28.417C19.8104 32.7393 14.702 33.489 9.3057 32.3176C4.16126 31.1814 1.39118 27.5619 0.0481122 22.7945C-0.059813 22.3962 0.0361205 21.9511 0.0361205 21.4943C1.2233 21.1195 1.23529 21.9746 1.45114 22.5954C2.26658 25.0318 3.77753 26.9997 5.70819 28.7098C9.67744 32.2239 19.1869 32.7159 23.4799 25.8986C24.4512 24.3641 24.5591 23.3685 24.0075 21.67L24.0195 21.6817Z" fill="#3B5941"/>
    </g>
    <defs>
        <clipPath id="clip0_257_1822">
            <rect width="179" height="35" fill="white"/>
        </clipPath>
    </defs>
</svg>

